<svg width="24" height="24" viewBox="0 0 24 24" fill="none" xmlns="http://www.w3.org/2000/svg">
<path d="M7.99998 13.9999L7.64298 15.7839C7.33498 17.3239 7.18097 18.0939 6.62797 18.5469C6.07498 18.9999 5.29098 18.9999 3.72098 18.9999H1.99998M1.99998 16.9999V20.9999M16.951 11.5079L21.203 11.5409C21.3276 11.5423 21.4502 11.5728 21.561 11.6299C21.7517 11.7299 21.8954 11.9009 21.961 12.106C22.0267 12.3111 22.0091 12.5337 21.912 12.7259L19.486 17.5549C19.4251 17.6784 19.3333 17.784 19.2196 17.8616C19.1058 17.9391 18.9739 17.9859 18.8367 17.9973C18.6995 18.0088 18.5617 17.9846 18.4366 17.9271C18.3116 17.8695 18.2035 17.7806 18.123 17.6689L15.599 14.1999M13.018 10.4649L12.962 10.5769M15.149 15.0969L17.403 10.6109C17.6421 10.1357 17.6852 9.58559 17.5228 9.07896C17.3605 8.57233 17.0058 8.14967 16.535 7.90192L7.68498 3.32992C7.33582 3.15035 6.95443 3.04204 6.56301 3.01129C6.17159 2.98054 5.77797 3.02797 5.40505 3.15081C5.03214 3.27366 4.68739 3.46947 4.39089 3.72684C4.09438 3.98421 3.85204 4.29799 3.67798 4.64992L2.32498 7.34192C1.57798 8.82892 2.16098 10.6479 3.62698 11.4059L12.476 15.9779C13.453 16.4829 14.649 16.0879 15.148 15.0979M13.073 10.3539C13.1319 10.3847 13.1764 10.4373 13.1967 10.5006C13.2171 10.5638 13.2118 10.6326 13.182 10.6919C13.1674 10.7212 13.1472 10.7474 13.1225 10.7688C13.0978 10.7902 13.069 10.8065 13.038 10.8168C13.0069 10.827 12.9741 10.8309 12.9415 10.8284C12.9089 10.8259 12.8771 10.8169 12.848 10.8019C12.7892 10.771 12.745 10.7183 12.7246 10.6551C12.7042 10.592 12.7094 10.5233 12.739 10.4639C12.7535 10.4346 12.7737 10.4085 12.7985 10.3871C12.8232 10.3656 12.8519 10.3493 12.883 10.3391C12.9141 10.3289 12.9468 10.3249 12.9795 10.3274C13.0121 10.33 13.0439 10.339 13.073 10.3539Z" stroke="black" stroke-width="1.5" stroke-linecap="round" stroke-linejoin="round"/>
</svg>
