<svg width="24" height="24" viewBox="0 0 24 24" fill="none" xmlns="http://www.w3.org/2000/svg">
<path d="M12.3726 4.62671C14.0928 4.62671 15.5082 6.04841 15.5084 7.82788C15.5084 9.60746 14.0928 11.03 12.3726 11.03C10.6525 11.0299 9.23785 9.60739 9.23785 7.82788C9.23798 6.04848 10.6526 4.62682 12.3726 4.62671Z" stroke="black" stroke-width="1.4"/>
<path d="M19.0839 19.5328C19.0839 15.7619 16.079 14.6558 12.3724 14.6558C8.66568 14.6558 5.66083 15.7619 5.66083 19.5328" stroke="black" stroke-width="1.4"/>
<path d="M8.75274 1.97534H5C3.89543 1.97534 3 2.87077 3 3.97534V10.217C3 11.3216 3.89543 12.217 5 12.217H7.31456" stroke="black" stroke-width="1.4"/>
<path d="M8.75274 1.97534H5C3.89543 1.97534 3 2.87077 3 3.97534V10.217C3 11.3216 3.89543 12.217 5 12.217H7.31456" stroke="black" stroke-width="1.4"/>
<path d="M16.2473 1.97534H20C21.1046 1.97534 22 2.87077 22 3.97534V10.217C22 11.3216 21.1046 12.217 20 12.217H17.6854" stroke="black" stroke-width="1.4"/>
<path d="M16.2473 1.97534H20C21.1046 1.97534 22 2.87077 22 3.97534V10.217C22 11.3216 21.1046 12.217 20 12.217H17.6854" stroke="black" stroke-width="1.4"/>
</svg>
