<svg width="24" height="24" viewBox="0 0 24 24" fill="none" xmlns="http://www.w3.org/2000/svg">
<g clip-path="url(#clip0_1755_1011)">
<path d="M19.1174 3.88325C20.1084 4.8743 20.3662 6.60104 19.7389 8.76809C19.1186 10.9108 17.6644 13.334 15.499 15.4994C13.3336 17.6648 10.9104 19.119 8.76769 19.7393C6.60061 20.3666 4.87391 20.1089 3.88285 19.1178C2.8918 18.1268 2.63408 16.4001 3.26137 14.233C3.88163 12.0903 5.33582 9.66708 7.50125 7.50165C9.66667 5.33624 12.0899 3.88203 14.2326 3.26177C16.3996 2.6345 18.1264 2.89221 19.1174 3.88325Z" stroke="black" stroke-width="1.24999"/>
<path d="M3.88307 3.88295C4.87412 2.89192 6.60086 2.6342 8.76791 3.26147C10.9106 3.88173 13.3338 5.33594 15.4992 7.50135C17.6647 9.66678 19.1189 12.09 19.7391 14.2327C20.3664 16.3998 20.1087 18.1265 19.1176 19.1175C18.1266 20.1086 16.3999 20.3663 14.2328 19.739C12.0901 19.1187 9.66689 17.6645 7.50147 15.4991C5.33606 13.3337 3.88185 10.9105 3.26159 8.76779C2.63432 6.60074 2.89203 4.874 3.88307 3.88295Z" stroke="black" stroke-width="1.24999"/>
<path d="M9.12494 8.64575H10.2579L11.0972 11.4069H9.96418L9.12494 8.64575Z" fill="black"/>
<path d="M9.12494 11.8013H10.2579L11.0972 14.5624H9.96418L9.12494 11.8013Z" fill="black"/>
<path d="M10.704 8.64575H11.7992L12.6105 11.4069H11.5153L10.704 8.64575Z" fill="black"/>
<path d="M10.704 11.8013H11.7992L12.6105 14.5624H11.5153L10.704 11.8013Z" fill="black"/>
<path d="M12.215 8.64575H13.348L14.1873 11.4069H13.0543L12.215 8.64575Z" fill="black"/>
<path d="M12.215 11.8013H13.348L14.1873 14.5624H13.0543L12.215 11.8013Z" fill="black"/>
</g>
<defs>
<clipPath id="clip0_1755_1011">
<rect width="24" height="24" fill="white"/>
</clipPath>
</defs>
</svg>
