<svg width="49" height="49" viewBox="0 0 49 49" fill="none" xmlns="http://www.w3.org/2000/svg">
<path d="M12.2615 3.31445C12.627 3.44802 13.1673 4.92092 13.3454 5.33543L14.5494 8.1103L18.9486 18.2307L20.2913 21.3349C20.5439 21.9145 20.8581 22.682 21.1649 23.216C18.3854 23.1598 15.5812 23.2309 12.802 23.2007L12.6923 23.1939C12.4534 23.0576 10.5273 18.4057 10.2672 17.8012L6.17776 8.40519C5.46047 6.76452 4.72142 4.96106 3.96265 3.3555C4.7272 3.29014 6.03557 3.32966 6.82552 3.33042C8.63751 3.34017 10.4496 3.33485 12.2615 3.31445Z" fill="#2996D3"/>
<path d="M29.1028 3.34792C30.8256 3.28068 32.5826 3.35914 34.3165 3.33173C34.6866 3.32587 37.455 3.23796 37.5821 3.46679C37.9367 4.1052 38.3336 5.108 38.628 5.79212L40.5119 10.1314C42.334 14.3772 44.2634 18.6407 46.0542 22.9052C46.1249 23.0736 46.1225 23.0629 46.0966 23.2395C45.6518 23.1674 43.8579 23.197 43.3406 23.1969C41.4734 23.1921 39.606 23.1971 37.7388 23.2117C37.1569 22.1194 36.5514 20.5443 36.0331 19.3562L32.6422 11.5536L30.0055 5.50614C29.8671 5.18759 29.1279 3.55488 29.1028 3.34792Z" fill="#2996D3"/>
<path d="M16.5488 3.34722C18.2151 3.28242 20.043 3.36215 21.7255 3.3314C22.2986 3.32093 24.4814 3.29072 24.9383 3.37642C25.4263 3.97462 26.6296 7.05449 27.0077 7.91731L31.3158 17.8506C31.6231 18.5618 33.5914 22.8401 33.6065 23.2104C30.7755 23.1924 27.9445 23.1922 25.1135 23.2099C25.009 22.7787 24.517 21.7281 24.3162 21.2745C23.8916 20.3145 23.4731 19.3518 23.0605 18.3866L17.8749 6.43626C17.6831 5.98374 16.5872 3.60458 16.5488 3.34722Z" fill="#2996D3"/>
<path d="M4.01288 26.1863C4.9509 26.221 6.01806 26.1988 6.96366 26.1998L12.4359 26.1889C13.2972 27.8958 14.208 30.1573 14.9738 31.9446L18.376 39.7677L20.1963 43.9547C20.3686 44.3415 21.0247 45.7138 21.1026 46.0087C18.2604 46.0405 15.4093 45.993 12.5663 46.0309C12.4843 45.6922 12.0307 44.7148 11.873 44.3528L10.421 41.015L5.23578 29.1014C5.0777 28.7399 4.0195 26.3938 4.01288 26.1863Z" fill="#2996D3"/>
<path d="M29.094 26.1916C31.8621 26.2399 34.7603 26.2038 37.5356 26.1892C38.0332 27.203 38.4107 28.1521 38.8637 29.1782L42.3211 37.1314C43.2005 39.1093 44.0613 41.0954 44.9035 43.0894C45.2779 43.9576 45.8848 45.1548 46.1632 46.0311C45.0741 45.9886 43.8195 46.0152 42.7175 46.0153C41.0345 46.0092 39.3515 46.0151 37.6685 46.0329C37.5727 45.6487 37.0777 44.6129 36.8926 44.1906L35.3879 40.7257L30.5817 29.6521C30.3776 29.1881 29.1287 26.5008 29.094 26.1916Z" fill="#2996D3"/>
<path d="M16.5668 26.1489C16.9923 26.2291 18.3405 26.2015 18.8322 26.2017L23.1847 26.1945C23.6967 26.1907 24.414 26.1533 24.9079 26.2341C24.9986 26.249 25.2406 26.6862 25.2929 26.8045C25.959 28.3114 26.6093 29.8375 27.2668 31.3472L31.962 42.1298C32.5192 43.3817 33.0407 44.7858 33.6668 45.9944C33.2779 46.0511 31.4211 46.0185 30.9602 46.0183C29.018 46.0114 27.0758 46.015 25.1336 46.0291C24.5655 44.5099 23.5807 42.4362 22.9115 40.8931L18.2363 30.1225C18.0186 29.6187 16.607 26.4992 16.5668 26.1489Z" fill="#2996D3"/>
</svg>
