<svg width="24" height="24" viewBox="0 0 24 24" fill="none" xmlns="http://www.w3.org/2000/svg">
<path d="M4.64453 1.59961H5.89258C6.17611 1.59978 6.4252 1.78812 6.50391 2.06055L8.62109 9.38574C8.73877 9.79305 8.43276 10.2002 8.00879 10.2002H6.76172C6.47803 10.2002 6.22816 10.0118 6.14941 9.73926L4.0332 2.41406C3.91556 2.00688 4.22078 1.59987 4.64453 1.59961Z" stroke="black" stroke-width="1.2"/>
<path d="M4.64453 12.7998H5.89258C6.17611 12.8 6.4252 12.9883 6.50391 13.2607L8.62109 20.5859C8.73877 20.9932 8.43276 21.4004 8.00879 21.4004H6.76172C6.47803 21.4004 6.22816 21.212 6.14941 20.9395L4.0332 13.6143C3.91556 13.2071 4.22078 12.8001 4.64453 12.7998Z" stroke="black" stroke-width="1.2"/>
<path d="M10.1679 1.59961H11.54C11.8214 1.59976 12.0697 1.78506 12.1503 2.05469L14.3398 9.38086C14.4615 9.78919 14.1556 10.2001 13.7294 10.2002H12.3574C12.0758 10.2002 11.8276 10.0149 11.747 9.74512L9.55756 2.41895C9.43569 2.0105 9.74161 1.59961 10.1679 1.59961Z" stroke="black" stroke-width="1.2"/>
<path d="M10.1678 12.7998H11.5399C11.8212 12.8 12.0696 12.9853 12.1502 13.2549L14.3397 20.5811C14.4614 20.9894 14.1554 21.4003 13.7293 21.4004H12.3572C12.0757 21.4004 11.8275 21.215 11.7469 20.9453L9.55743 13.6191C9.43556 13.2107 9.74149 12.7998 10.1678 12.7998Z" stroke="black" stroke-width="1.2"/>
<path d="M15.4452 1.59961H16.8173C17.0986 1.59976 17.347 1.78506 17.4276 2.05469L19.6171 9.38086C19.7388 9.78919 19.4328 10.2001 19.0067 10.2002H17.6346C17.3531 10.2002 17.1049 10.0149 17.0243 9.74512L14.8348 2.41895C14.713 2.0105 15.0189 1.59961 15.4452 1.59961Z" stroke="black" stroke-width="1.2"/>
<path d="M15.4452 12.7998H16.8173C17.0986 12.8 17.347 12.9853 17.4276 13.2549L19.6171 20.5811C19.7388 20.9894 19.4328 21.4003 19.0067 21.4004H17.6346C17.3531 21.4004 17.1049 21.2151 17.0243 20.9453L14.8348 13.6191C14.713 13.2107 15.0189 12.7998 15.4452 12.7998Z" stroke="black" stroke-width="1.2"/>
</svg>
