<svg width="24" height="24" viewBox="0 0 24 24" fill="none" xmlns="http://www.w3.org/2000/svg">
<path d="M8.75781 3.9502L8.77246 3.96484L12.0732 7.34961H18.6846C19.5775 7.34971 20.4334 7.71428 21.0645 8.36133C21.6954 9.00836 22.0498 9.88533 22.0498 10.7998V17.5996C22.0498 18.5142 21.6955 19.392 21.0645 20.0391C20.4334 20.6861 19.5775 21.0497 18.6846 21.0498H4.31543C3.42252 21.0497 2.56656 20.6861 1.93555 20.0391C1.30448 19.392 0.950195 18.5142 0.950195 17.5996V7.40039C0.950195 6.48579 1.30448 5.60803 1.93555 4.96094C2.56656 4.31394 3.42252 3.95029 4.31543 3.9502H8.75781ZM4.31543 5.18359C3.74296 5.18369 3.19328 5.41655 2.78809 5.83203C2.38286 6.24763 2.15527 6.81217 2.15527 7.40039V17.5996C2.15527 18.1878 2.38286 18.7524 2.78809 19.168C3.19328 19.5835 3.74296 19.8163 4.31543 19.8164H18.6846C19.257 19.8163 19.8067 19.5835 20.2119 19.168C20.6171 18.7524 20.8447 18.1878 20.8447 17.5996V10.7998C20.8447 10.2117 20.617 9.64796 20.2119 9.23242C19.8067 8.81694 19.257 8.58311 18.6846 8.58301H11.5781L11.5635 8.56836L8.26367 5.18359H4.31543Z" fill="black" stroke="black" stroke-width="0.1"/>
<path d="M6.90909 13.9167L8.18182 15.0833L10.4091 13.0417M5 11V14.7917C5 15.6426 5.36875 16.4586 6.02513 17.0603C6.6815 17.662 7.57174 18 8.5 18C9.42826 18 10.3185 17.662 10.9749 17.0603C11.6313 16.4586 12 15.6426 12 14.7917V11H5Z" stroke="black" stroke-width="0.9"/>
</svg>
