<svg width="84" height="84" viewBox="0 0 84 84" fill="none" xmlns="http://www.w3.org/2000/svg">
<path d="M75.6157 7.87502H25.4756C25.0645 7.87398 24.6573 7.9541 24.2772 8.11078C23.8971 8.26747 23.5517 8.49763 23.2608 8.78808C22.9698 9.07853 22.7391 9.42355 22.5818 9.80336C22.4245 10.1832 22.3436 10.5903 22.344 11.0014V24.9375L51.4001 33.4688L78.75 24.9375V11.0014C78.7503 10.5901 78.6695 10.1827 78.512 9.80275C78.3545 9.42277 78.1235 9.07763 77.8323 8.78715C77.5411 8.49667 77.1954 8.26656 76.815 8.11003C76.4346 7.9535 76.0271 7.87363 75.6157 7.87502Z" fill="#41A5EE"/>
<path d="M78.75 24.9375H22.344V42L51.4001 47.1188L78.75 42V24.9375Z" fill="#2B7CD3"/>
<path d="M22.344 42V59.0625L49.6912 62.475L78.75 59.0625V42H22.344Z" fill="#185ABD"/>
<path d="M25.4756 76.125H75.6131C76.0247 76.1267 76.4325 76.0471 76.8132 75.8907C77.1938 75.7344 77.5399 75.5043 77.8314 75.2138C78.1229 74.9233 78.3541 74.578 78.5117 74.1979C78.6694 73.8177 78.7503 73.4102 78.75 72.9986V59.0625H22.344V72.9986C22.3436 73.4097 22.4245 73.8169 22.5818 74.1967C22.7391 74.5765 22.9698 74.9215 23.2608 75.2119C23.5517 75.5024 23.8971 75.7326 24.2772 75.8892C24.6573 76.0459 25.0645 76.126 25.4756 76.125Z" fill="#103F91"/>
<path opacity="0.1" d="M43.1392 21.5249H22.344V64.1812H43.1392C43.9679 64.177 44.7615 63.8466 45.3482 63.2614C45.9348 62.6762 46.2673 61.8834 46.2735 61.0548V24.6513C46.2673 23.8227 45.9348 23.0299 45.3482 22.4447C44.7615 21.8595 43.9679 21.529 43.1392 21.5249Z" fill="black"/>
<path opacity="0.2" d="M41.4304 23.2312H22.344V65.8875H41.4304C42.259 65.8833 43.0526 65.5529 43.6393 64.9677C44.226 64.3825 44.5584 63.5897 44.5646 62.7611V26.3576C44.5584 25.529 44.226 24.7362 43.6393 24.151C43.0526 23.5658 42.259 23.2353 41.4304 23.2312Z" fill="black"/>
<path opacity="0.2" d="M41.4304 23.2312H22.344V62.475H41.4304C42.259 62.4708 43.0526 62.1404 43.6393 61.5552C44.226 60.97 44.5584 60.1772 44.5646 59.3486V26.3576C44.5584 25.529 44.226 24.7362 43.6393 24.151C43.0526 23.5658 42.259 23.2353 41.4304 23.2312Z" fill="black"/>
<path opacity="0.2" d="M39.7215 23.2312H22.344V62.475H39.7215C40.5501 62.4708 41.3437 62.1404 41.9304 61.5552C42.5171 60.97 42.8495 60.1772 42.8557 59.3486V26.3576C42.8495 25.529 42.5171 24.7362 41.9304 24.151C41.3437 23.5658 40.5501 23.2353 39.7215 23.2312Z" fill="black"/>
<path d="M8.38425 23.2312H39.7215C40.5516 23.2305 41.348 23.5594 41.9357 24.1457C42.5234 24.7319 42.8544 25.5275 42.8558 26.3576V57.6423C42.8544 58.4724 42.5234 59.268 41.9357 59.8543C41.348 60.4405 40.5516 60.7694 39.7215 60.7687H8.38425C7.97293 60.7701 7.56539 60.6902 7.18501 60.5337C6.80464 60.3772 6.45892 60.1471 6.16771 59.8566C5.87649 59.5661 5.64551 59.221 5.48803 58.841C5.33054 58.461 5.24965 58.0537 5.25 57.6423V26.3576C5.24965 25.9463 5.33054 25.5389 5.48803 25.1589C5.64551 24.779 5.87649 24.4338 6.16771 24.1433C6.45892 23.8529 6.80464 23.6228 7.18501 23.4662C7.56539 23.3097 7.97293 23.2298 8.38425 23.2312Z" fill="url(#paint0_linear_1092_14712)"/>
<path d="M18.1125 47.2184C18.1738 47.7014 18.214 48.1223 18.2333 48.4811H18.3068C18.333 48.1398 18.3899 47.7286 18.4774 47.2473C18.6087 46.5254 18.6402 46.3601 18.711 46.0267L22.0054 31.8333H26.2684L29.6809 45.8141C29.878 46.6792 30.02 47.556 30.1062 48.4391H30.1639C30.2294 47.5795 30.3477 46.7247 30.5183 45.8797L33.2457 31.8149H37.1228L32.3348 52.1534H27.8014L24.5543 38.6977C24.4598 38.3092 24.353 37.8034 24.234 37.1804C24.115 36.5574 24.0415 36.1024 24.0135 35.8154H23.9584C23.9217 36.1462 23.8482 36.6371 23.7379 37.2881C23.6277 37.9391 23.5402 38.4221 23.4754 38.7371L20.4225 52.1613H15.813L10.9988 31.8333H14.9363L17.9052 46.0556C17.9917 46.4399 18.0609 46.8279 18.1125 47.2184Z" fill="white"/>
<defs>
<linearGradient id="paint0_linear_1092_14712" x1="11.7968" y1="20.7742" x2="36.309" y2="63.2257" gradientUnits="userSpaceOnUse">
<stop stop-color="#2368C4"/>
<stop offset="0.5" stop-color="#1A5DBE"/>
<stop offset="1" stop-color="#1146AC"/>
</linearGradient>
</defs>
</svg>
